<svg width="308" height="50" viewBox="0 0 308 50" fill="none" xmlns="http://www.w3.org/2000/svg">
<path d="M10.7842 40.3826V44.3446H9.25085V44.6824H15.2155V44.3446H13.6821V40.3826H10.7842Z" fill="#FFF0DE"/>
<path d="M11.2103 23.5755C11.0846 23.5999 10.942 23.6261 10.7843 23.6618V38.8323H13.6822V23.446C13.3856 23.4366 13.121 23.4291 12.8732 23.4291C12.2408 23.4291 11.7603 23.4722 11.2103 23.5755Z" fill="#FFF0DE"/>
<path d="M1.10172 4.29283C1.19932 3.70538 1.37385 3.15172 1.62722 2.63371C1.87872 2.1157 2.21467 1.654 2.63509 1.24673C3.0555 0.841329 3.56038 0.55417 4.14783 0.385255L10.7843 0.426546V5.53718H12.6574C13.0028 5.53718 13.3444 5.5522 13.6841 5.58223V0.385255L20.0691 0.426546C20.6565 0.593584 21.1614 0.88262 21.5818 1.28802C22.0022 1.69341 22.3382 2.15699 22.5897 2.675C22.843 3.19301 23.0232 3.74667 23.1358 4.33412C23.2484 4.92158 23.2766 5.51091 23.2203 6.09836H23.6407V0.133759L0.579956 0.0924683V6.05707H1.00037C0.972214 5.46962 1.00601 4.88028 1.10548 4.29283H1.10172Z" fill="#FFF0DE"/>
<path d="M11.6214 21.9332C12.0362 21.8657 12.5842 21.7756 13.2336 21.663C13.3988 21.6348 13.5452 21.6085 13.6822 21.5841V7.1475C13.3594 7.11184 13.0197 7.09119 12.6556 7.09119H10.7825V22.0796L10.8406 22.0646L11.6177 21.9332H11.6214Z" fill="#FFF0DE"/>
<path d="M21.0168 37.4453C21.9778 36.6927 22.7529 35.7881 23.346 34.7314C23.9372 33.6748 24.2356 32.4736 24.2356 31.1279C24.2356 30.0074 24.0029 28.9508 23.5393 27.9579C23.0739 26.9651 22.4339 26.0848 21.6175 25.3153C21.1107 24.8386 20.5401 24.4201 19.9227 24.0485V24.0334C19.857 23.9978 19.7913 23.964 19.7256 23.9302C19.4084 23.7482 19.0818 23.5755 18.7365 23.4197C18.4869 23.3071 18.2335 23.2076 17.9782 23.1157C17.9745 23.1157 17.9688 23.1119 17.9651 23.11C17.845 23.0669 17.7211 23.0293 17.5991 22.9899C17.4903 22.9543 17.3833 22.9148 17.2725 22.8829C17.2481 22.8754 17.2219 22.8717 17.1956 22.8642C16.5537 22.6821 15.8931 22.5526 15.208 22.4813C16.2328 22.2579 17.1843 21.8882 18.0664 21.3758C18.9467 20.8635 19.7068 20.2554 20.3487 19.5497C20.9887 18.8459 21.4842 18.0613 21.837 17.1961C22.188 16.3309 22.3663 15.4187 22.3663 14.4578C22.3663 13.3054 22.1092 12.2319 21.5968 11.239C21.0844 10.2462 20.3881 9.37345 19.5079 8.62084C18.6258 7.86822 17.5935 7.26763 16.4092 6.81907C15.2249 6.3705 13.9749 6.14716 12.6611 6.14716H2.92035V6.48311H4.3524V26.0773C4.22102 26.2012 4.08024 26.3157 3.95261 26.4452C2.73079 27.682 1.76609 29.1347 1.0604 30.8051C0.354704 32.4755 0 34.266 0 36.1785C0 38.091 0.352828 39.8439 1.0604 41.5125C1.76609 43.1828 2.73079 44.6355 3.95261 45.8724C5.17444 47.1092 6.61021 48.0908 8.25807 48.8171C9.90594 49.5434 11.6739 49.9076 13.5583 49.9076C16.0601 49.9076 18.3123 49.3088 20.3149 48.1095C20.6377 48.0326 20.9549 48.0195 21.2646 48.072C21.5743 48.1227 21.7732 48.3404 21.8614 48.7214V48.9504H22.3025V43.5582H21.8614C21.7732 43.8904 21.7 44.1832 21.6399 44.4384C21.5799 44.6674 21.5217 44.8851 21.4635 45.0878C21.4035 45.2924 21.3603 45.42 21.3303 45.4707C21.0938 46.1595 20.7053 46.7714 20.161 47.3063C19.6149 47.8412 18.9899 48.2822 18.2842 48.6257C17.5785 48.9691 16.8127 49.2244 15.9869 49.3914C15.163 49.5566 14.354 49.6392 13.5583 49.6392C11.7039 49.6392 10.1199 49.2901 8.81178 48.5881C7.50174 47.8862 6.4188 46.9253 5.56483 45.7016C4.71087 44.4779 4.08586 43.0515 3.68797 41.4186C3.29008 39.7876 3.09115 38.0403 3.09115 36.1804C3.09115 34.3204 3.29008 32.5674 3.68797 30.9233C3.86252 30.2007 4.08965 29.5251 4.3524 28.8832V39.7783H14.1514C15.3676 39.7783 16.5762 39.5793 17.7774 39.1777C18.9786 38.7779 20.0596 38.2017 21.0206 37.4491L21.0168 37.4453ZM7.66125 22.8172V6.48499H12.6574C13.9393 6.48499 14.9884 6.69332 15.8048 7.10998C16.6213 7.52663 17.2613 8.09532 17.7268 8.81602C18.1903 9.53673 18.5113 10.3776 18.6877 11.3385C18.8641 12.2994 18.9523 13.3411 18.9523 14.4616C18.9523 15.582 18.8472 16.5749 18.6408 17.5358C18.4324 18.4968 18.089 19.3376 17.6085 20.0583C17.3776 20.4055 17.1843 20.6157 17.0773 20.7246C16.9028 20.9048 16.4205 21.3721 15.5815 21.7474C15.2287 21.9051 14.9378 21.9858 13.3406 22.2655C12.6874 22.3799 12.1356 22.47 11.7246 22.5376C11.4731 22.5808 11.2198 22.6221 10.9683 22.6652C10.5591 22.7647 10.15 22.8623 9.74268 22.9618C9.01259 23.2001 8.47015 23.4047 8.25619 23.5061C8.08165 23.5886 7.86208 23.6994 7.86208 23.6994C7.7964 23.7332 7.7307 23.7669 7.66501 23.8007V22.8229L7.66125 22.8172ZM14.1945 39.4385H7.66125V24.467C7.92588 24.2587 8.31065 23.9884 8.80614 23.7313C9.75207 23.2395 10.561 23.08 11.0978 22.9787C12.1432 22.7797 12.8976 22.8079 14.2696 22.8567C15.2681 22.8923 15.848 22.9805 16.3886 23.1138C16.7433 23.202 17.0849 23.2846 17.4846 23.4648C18.6633 23.9959 19.3296 24.8893 19.551 25.2177C20.0484 25.9553 20.3919 26.8356 20.5833 27.8603C20.7766 28.8851 20.8705 29.9736 20.8705 31.126C20.8705 32.2784 20.7747 33.3688 20.5833 34.3917C20.39 35.4165 20.0465 36.2986 19.551 37.0343C19.0537 37.7719 18.3742 38.3556 17.509 38.7873C16.6438 39.219 15.5402 39.4367 14.1945 39.4367V39.4385Z" fill="#FFF0DE"/>
<path d="M49.2918 18.0409H47.6498V30.2597C47.6498 31.0432 47.7996 31.5789 48.0992 31.867C48.2893 32.0513 48.5601 32.1435 48.9173 32.1435H48.9864V32.2933H44.3316V32.1435H44.3892C44.7637 32.1435 45.046 32.0513 45.2303 31.867C45.5299 31.5732 45.6797 31.0374 45.6797 30.2597V18.0409H44.0378C43.1046 18.0409 42.3556 18.2137 41.7911 18.5536C41.2265 18.8935 40.7944 19.4465 40.4891 20.2012L40.3854 20.4547H40.2356V17.7183H53.0997V20.4547H52.9614L52.8577 20.2127C52.5524 19.4465 52.1145 18.8935 51.5557 18.5536C50.9912 18.2137 50.2422 18.0409 49.309 18.0409H49.2918Z" fill="#FFF0DE"/>
<path d="M69.3629 17.8681H69.2938C68.9482 17.8681 68.6774 17.966 68.4757 18.1561C68.1704 18.4614 68.0149 18.9972 68.0149 19.7518V30.2597C68.0149 31.0432 68.1646 31.5789 68.4642 31.867C68.6543 32.0513 68.9251 32.1435 69.2823 32.1435H69.3629V32.2933H64.7082V32.1435H64.7773C65.1345 32.1435 65.411 32.0513 65.5953 31.867C65.8949 31.5732 66.0447 31.0374 66.0447 30.2597V24.2914H57.9852V30.2597C57.9852 31.0316 58.135 31.5732 58.4346 31.867C58.6189 32.0513 58.8896 32.1435 59.2526 32.1435H59.3217V32.2933H54.6785V32.1435H54.7015C55.0875 32.1435 55.3698 32.0513 55.5657 31.867C55.8652 31.5732 56.015 31.0374 56.015 30.2597V19.7518C56.015 18.9799 55.8652 18.4441 55.5657 18.1561C55.364 17.966 55.0932 17.8681 54.7476 17.8681H54.6785V17.7183H59.3217V17.8681H59.241C58.8954 17.8681 58.6304 17.966 58.4346 18.1561C58.135 18.4499 57.9852 18.9799 57.9852 19.7518V23.9573H66.0447V19.7518C66.0447 18.9799 65.8949 18.4441 65.5953 18.1561C65.3937 17.966 65.1287 17.8681 64.7888 17.8681H64.7082V17.7183H69.3629V17.8681Z" fill="#FFF0DE"/>
<path d="M71.2347 32.2933V32.1435H71.3039C71.6553 32.1435 71.9261 32.0513 72.1219 31.867C72.4215 31.5732 72.5712 31.0374 72.5712 30.2597V19.7518C72.5712 18.9684 72.4215 18.4326 72.1219 18.1446C71.9318 17.9602 71.661 17.8681 71.3039 17.8681H71.2347V17.7183H81.0628V20.0975H80.9245C80.6307 19.3774 80.1986 18.8531 79.6225 18.5305C79.0465 18.2079 78.263 18.0409 77.2837 18.0409H74.5472V24.2165H76.6615C77.4796 24.2165 78.1074 24.1243 78.5395 23.9342C78.9716 23.7441 79.2942 23.433 79.5131 22.9837L79.5592 22.88H79.709V26.0542H79.5707L79.5247 25.939C79.3115 25.4321 78.9831 25.0749 78.5453 24.856C78.1074 24.6428 77.4796 24.5334 76.6615 24.5334H74.5472V31.9707H77.733C78.6202 31.9707 79.3345 31.8324 79.8703 31.5559C80.4061 31.2794 80.8266 30.83 81.1377 30.2136L81.3912 29.649H81.5294V32.2933H71.2405H71.2347Z" fill="#FFF0DE"/>
<path d="M98.4611 23.9918C98.4611 23.9918 98.6282 24.0091 98.8932 24.0494C99.1582 24.0898 99.4923 24.1474 99.9071 24.2338C100.316 24.3202 100.65 24.4066 100.904 24.4988C101.376 24.6601 101.791 24.856 102.148 25.0864C102.517 25.3168 102.816 25.5876 103.058 25.8929C103.294 26.1867 103.479 26.5209 103.611 26.9068C103.744 27.3159 103.807 27.7133 103.807 28.1108C103.807 29.4359 103.318 30.467 102.344 31.1987C101.37 31.9303 99.9993 32.299 98.2307 32.299H91.5308V32.1492H91.5538C91.9398 32.1492 92.2221 32.0571 92.418 31.8727C92.7175 31.5789 92.8673 31.0431 92.8673 30.2654V19.7576C92.8673 18.9741 92.7175 18.4383 92.418 18.1503C92.2279 17.966 91.9513 17.8738 91.5999 17.8738H91.5308V17.724H97.6719C99.2216 17.724 100.42 17.9948 101.278 18.542C102.131 19.0836 102.557 19.8497 102.557 20.8291C102.557 21.1805 102.488 21.5146 102.35 21.8315C102.171 22.229 101.895 22.5862 101.509 22.903C101.198 23.1623 100.765 23.4042 100.224 23.6174C100.022 23.6923 99.8149 23.7614 99.6018 23.8132C99.3886 23.8651 99.2158 23.9054 99.0775 23.9284C98.945 23.9515 98.8125 23.9688 98.68 23.9861C98.5475 24.0034 98.4784 24.0091 98.4727 24.0091L98.4611 23.9918ZM94.803 18.0408V23.8132H97.1131C98.2249 23.8132 99.0775 23.554 99.6767 23.0413C100.259 22.5343 100.552 21.7912 100.552 20.8118C100.552 19.9131 100.305 19.2276 99.8034 18.7552C99.3022 18.277 98.5878 18.0408 97.6546 18.0408H94.803ZM100.725 30.974C101.353 30.3173 101.67 29.361 101.67 28.1108C101.67 26.8607 101.255 25.8814 100.42 25.1843C99.5845 24.4872 98.415 24.1416 96.9056 24.1416H94.803V31.9706H98.0002C99.187 31.9706 100.097 31.6365 100.725 30.9683V30.974Z" fill="#FFF0DE"/>
<path d="M118.393 19.6482C119.811 21.0481 120.519 22.8109 120.519 24.9252C120.519 27.0394 119.805 28.8886 118.382 30.3288C116.965 31.7633 115.236 32.4777 113.209 32.4777C111.181 32.4777 109.435 31.7748 108.047 30.3749C106.658 28.9866 105.967 27.1776 105.967 24.9482C105.967 22.7187 106.774 20.8407 108.381 19.4062C109.787 18.1561 111.452 17.5339 113.381 17.5339C115.311 17.5339 116.982 18.2368 118.393 19.6482ZM116.896 30.4556C117.869 29.3265 118.353 27.5751 118.353 25.2017C118.353 22.6438 117.817 20.7139 116.746 19.4062C115.882 18.3808 114.689 17.8681 113.168 17.8681C111.734 17.8681 110.587 18.3808 109.718 19.4062C108.652 20.6563 108.122 22.4883 108.122 24.9021C108.122 27.3159 108.675 29.2573 109.775 30.5938C110.633 31.6366 111.768 32.1551 113.18 32.1551C114.672 32.1551 115.91 31.5905 116.896 30.4556Z" fill="#FFF0DE"/>
<path d="M148.891 19.6482C150.309 21.0481 151.017 22.8109 151.017 24.9252C151.017 27.0394 150.303 28.8886 148.88 30.3288C147.463 31.7633 145.734 32.4777 143.707 32.4777C141.679 32.4777 139.933 31.7748 138.545 30.3749C137.156 28.9866 136.465 27.1776 136.465 24.9482C136.465 22.7187 137.272 20.8407 138.879 19.4062C140.279 18.1561 141.949 17.5339 143.879 17.5339C145.809 17.5339 147.48 18.2368 148.891 19.6482ZM147.399 30.4556C148.373 29.3265 148.857 27.5751 148.857 25.2017C148.857 22.6438 148.321 20.7139 147.249 19.4062C146.385 18.3808 145.193 17.8681 143.672 17.8681C142.237 17.8681 141.091 18.3808 140.221 19.4062C139.155 20.6563 138.625 22.4883 138.625 24.9021C138.625 27.3159 139.178 29.2573 140.279 30.5938C141.137 31.6366 142.272 32.1551 143.683 32.1551C145.176 32.1551 146.414 31.5905 147.399 30.4556Z" fill="#FFF0DE"/>
<path d="M163.075 25.893C163.772 26.567 164.124 27.3678 164.124 28.2953C164.124 28.7792 164.014 29.2746 163.789 29.7873C163.426 30.6054 162.712 31.2851 161.641 31.8209C160.73 32.2587 159.734 32.4777 158.662 32.4777C158.006 32.4777 157.372 32.397 156.767 32.2357C156.398 32.1435 156.024 32.0283 155.638 31.89C155.252 31.7518 154.952 31.6423 154.751 31.5559C154.549 31.4695 154.44 31.4234 154.434 31.4176C154.37 31.3888 154.296 31.3716 154.203 31.3716C154.048 31.3716 153.91 31.4234 153.789 31.5329H153.558V27.8632H153.696C154.295 29.8622 155.246 31.1526 156.548 31.7345C157.02 31.9419 157.504 32.0686 157.994 32.1147C158.109 32.132 158.288 32.1378 158.524 32.1378C159.221 32.1378 159.895 31.9995 160.54 31.7288C161.186 31.458 161.675 31.0317 161.998 30.4556C162.263 29.9717 162.367 29.4935 162.309 29.0269C162.246 28.5545 162.09 28.134 161.831 27.7595C161.572 27.3908 161.243 27.0739 160.846 26.8089C160.454 26.5497 159.832 26.2674 158.973 25.9679L158.305 25.7259C157.792 25.5473 157.395 25.4033 157.113 25.2938C156.83 25.1844 156.473 25.0288 156.041 24.8214C155.615 24.6198 155.24 24.3951 154.923 24.1532C154.612 23.9112 154.336 23.6462 154.105 23.3524C153.668 22.7878 153.472 22.1023 153.506 21.2958C153.547 20.4892 153.812 19.7922 154.313 19.2046C154.653 18.8071 155.039 18.4787 155.477 18.2252C156.289 17.7586 157.28 17.5224 158.455 17.5224H158.466C159.584 17.5224 160.713 17.7356 161.848 18.1561H161.86C162.05 18.1964 162.171 18.2137 162.217 18.2137C162.384 18.2137 162.511 18.1619 162.585 18.0639H162.827V21.3995H162.678C162.562 21.0596 162.361 20.6333 162.078 20.1148C161.796 19.5963 161.525 19.1988 161.26 18.9165C160.805 18.4211 160.177 18.0985 159.377 17.9487C159.025 17.8796 158.691 17.845 158.38 17.845C158.017 17.845 157.689 17.8853 157.389 17.9602C156.807 18.0985 156.3 18.3923 155.868 18.8474C155.436 19.3025 155.217 19.844 155.217 20.4777C155.217 20.76 155.269 21.0308 155.367 21.29C155.465 21.5493 155.586 21.7682 155.718 21.9525C155.851 22.1369 156.035 22.3212 156.266 22.4998C156.496 22.6784 156.698 22.8224 156.882 22.9319C157.061 23.0413 157.291 23.1565 157.562 23.2775C157.833 23.3985 158.034 23.4849 158.167 23.531C158.299 23.5771 158.472 23.6405 158.697 23.7153L159.066 23.8421C159.716 24.0553 160.212 24.2281 160.552 24.3606C160.892 24.4931 161.312 24.6947 161.819 24.9712C162.326 25.2477 162.747 25.5473 163.092 25.8814L163.075 25.893Z" fill="#FFF0DE"/>
<path d="M142.606 25.0979H130.618C131.436 24.879 132.122 24.5506 132.646 24.0898C133.418 23.41 133.81 22.5343 133.81 21.4513C133.81 20.2645 133.366 19.3428 132.479 18.6918C131.592 18.0408 130.336 17.7125 128.717 17.7125H122.305V17.8623H122.374C122.726 17.8623 122.996 17.9544 123.192 18.1388C123.492 18.4326 123.642 18.9683 123.642 19.7576V25.0922H114.349C113.479 24.6831 113.22 23.7268 113.22 23.7268V26.8319C113.22 26.8319 113.485 25.8756 114.355 25.4666H123.647V30.2596C123.647 31.0431 123.498 31.5789 123.198 31.867C122.991 32.0686 122.697 32.1607 122.311 32.1435V32.2933H126.966V32.1435H126.885C126.528 32.1435 126.251 32.0513 126.067 31.867C125.767 31.5731 125.618 31.0374 125.618 30.2596V18.0408H128.734C129.685 18.0408 130.422 18.3404 130.952 18.9395C131.465 19.5214 131.724 20.3625 131.724 21.457C131.724 22.5516 131.407 23.4906 130.774 24.1358C130.14 24.781 129.27 25.1037 128.158 25.1037H127.409V25.4551C127.409 25.4551 127.444 25.4839 127.478 25.4954C127.513 25.5127 127.536 25.5242 127.553 25.53L127.645 25.5876C127.853 25.7028 128.078 25.8699 128.325 26.083C128.826 26.5151 129.247 27.0393 129.593 27.6557C129.852 28.1454 130.082 28.589 130.284 28.9865L130.307 29.0326C130.486 29.384 130.618 29.649 130.704 29.8218C130.791 29.9947 130.918 30.2193 131.085 30.5016C131.252 30.7839 131.39 30.9913 131.511 31.1295C131.632 31.2678 131.787 31.4291 131.978 31.6077C132.168 31.7863 132.358 31.9188 132.548 31.9994C132.738 32.0801 132.957 32.1492 133.21 32.2126C133.464 32.276 133.735 32.3048 134.029 32.3048H135.751V32.155C135.469 32.1089 135.175 31.9821 134.87 31.769C134.564 31.5558 134.345 31.3773 134.201 31.2217C134.057 31.0662 133.879 30.8646 133.654 30.5996L133.608 30.5535C133.234 30.0983 132.738 29.4416 132.127 28.5775L131.736 28.0244L131.436 27.6212L131.125 27.2064C130.681 26.6706 130.186 26.2386 129.644 25.9102C129.639 25.9044 129.616 25.8871 129.581 25.8699C129.547 25.8526 129.518 25.8353 129.495 25.818L129.426 25.7719C129.426 25.7719 129.391 25.7489 129.362 25.7316C129.333 25.7143 129.316 25.697 129.299 25.6913L128.953 25.4724H142.629C143.499 25.8814 143.759 26.8377 143.759 26.8377V23.7326C143.759 23.7326 143.494 24.6889 142.624 25.0979H142.606Z" fill="#FFF0DE"/>
<path d="M186.309 31.6363C185.744 31.8437 185.347 31.9762 185.128 32.028C184.033 32.2988 183.186 32.4428 182.587 32.4659C182.478 32.4716 182.294 32.4774 182.034 32.4774C180.174 32.4774 178.624 32.1433 177.391 31.475C176.631 31.0602 175.968 30.4956 175.404 29.7755C174.891 29.1303 174.499 28.3699 174.223 27.4884C173.952 26.607 173.831 25.7083 173.859 24.7866C173.9 23.4731 174.246 22.2576 174.908 21.1342C175.565 20.0108 176.458 19.1121 177.587 18.4381C178.589 17.839 179.839 17.5394 181.337 17.5394C181.602 17.5394 181.896 17.5509 182.213 17.574C182.887 17.6374 183.492 17.7353 184.028 17.8735C184.166 17.9023 184.488 17.9945 185.007 18.1385L185.099 18.1616C185.099 18.1616 185.134 18.1789 185.162 18.1846C185.191 18.1904 185.208 18.1961 185.226 18.1961C185.278 18.2134 185.37 18.2365 185.491 18.2653C185.877 18.3632 186.136 18.3286 186.286 18.1616H186.482V21.6008H186.32C186.274 21.4799 186.222 21.3474 186.159 21.2091L186.136 21.163C185.514 19.838 184.869 18.9797 184.206 18.5879C183.377 18.1098 182.501 17.8735 181.573 17.8735C180.035 17.8735 178.779 18.3748 177.817 19.3772C177.218 19.9993 176.763 20.777 176.446 21.7161C176.129 22.6551 175.991 23.6748 176.02 24.7693C176.06 26.2326 176.331 27.523 176.838 28.6349C177.379 29.8332 178.1 30.703 178.987 31.2561C179.332 31.4635 179.649 31.6248 179.943 31.74C180.634 31.9935 181.354 32.1202 182.115 32.1202C182.656 32.1202 183.21 32.0453 183.768 31.9013C184.189 31.7803 184.615 31.5729 185.041 31.2906C185.427 31.0256 185.779 30.68 186.113 30.2652C186.28 30.0578 186.447 29.8043 186.62 29.4933L186.781 29.1821L186.931 29.2167L186.32 31.6305L186.309 31.6363Z" fill="#FFF0DE"/>
<path d="M201.057 19.6481C202.474 21.048 203.182 22.8109 203.182 24.9251C203.182 27.0393 202.468 28.8885 201.045 30.3288C199.628 31.7632 197.9 32.4776 195.872 32.4776C193.844 32.4776 192.098 31.7748 190.71 30.3749C189.322 28.9865 188.63 27.1776 188.63 24.9481C188.63 22.7187 189.437 20.8406 191.044 19.4062C192.444 18.156 194.115 17.5339 196.045 17.5339C197.974 17.5339 199.645 18.2367 201.057 19.6481ZM199.565 30.4555C200.538 29.3264 201.022 27.5751 201.022 25.2016C201.022 22.6438 200.486 20.7139 199.415 19.4062C198.551 18.3807 197.358 17.868 195.837 17.868C194.403 17.868 193.256 18.3807 192.386 19.4062C191.321 20.6563 190.791 22.4882 190.791 24.902C190.791 27.3158 191.344 29.2573 192.444 30.5938C193.302 31.6365 194.437 32.155 195.849 32.155C197.341 32.155 198.579 31.5904 199.565 30.4555Z" fill="#FFF0DE"/>
<path d="M209.611 32.2932H204.968V32.1434H204.991C205.377 32.1434 205.659 32.0513 205.855 31.8669C206.155 31.5731 206.305 31.0373 206.305 30.2596V19.7518C206.305 18.9683 206.155 18.4325 205.855 18.1445C205.665 17.9602 205.389 17.868 205.037 17.868H204.968V17.7182H209.611V17.868H209.531C209.179 17.868 208.908 17.9602 208.724 18.1445C208.425 18.4383 208.275 18.9741 208.275 19.7518V31.9591L211.507 31.9706C212.463 31.9706 213.223 31.8093 213.776 31.4867C214.329 31.1641 214.762 30.6341 215.055 29.9024L215.159 29.649H215.309V32.2932H209.606H209.611Z" fill="#FFF0DE"/>
<path d="M221.969 32.2932H217.325V32.1434H217.348C217.734 32.1434 218.017 32.0513 218.212 31.8669C218.512 31.5731 218.662 31.0373 218.662 30.2596V19.7518C218.662 18.9683 218.512 18.4325 218.212 18.1445C218.022 17.9602 217.746 17.868 217.394 17.868H217.325V17.7182H221.969V17.868H221.888C221.537 17.868 221.266 17.9602 221.082 18.1445C220.782 18.4383 220.632 18.9741 220.632 19.7518V31.9591L223.864 31.9706C224.82 31.9706 225.581 31.8093 226.134 31.4867C226.687 31.1641 227.119 30.6341 227.413 29.9024L227.516 29.649H227.666V32.2932H221.963H221.969Z" fill="#FFF0DE"/>
<path d="M229.682 32.2932V32.1434H229.751C230.103 32.1434 230.374 32.0513 230.57 31.8669C230.869 31.5731 231.019 31.0373 231.019 30.2596V19.7518C231.019 18.9683 230.869 18.4325 230.57 18.1445C230.379 17.9602 230.103 17.868 229.751 17.868H229.682V17.7182H239.51V20.0974H239.372C239.078 19.3773 238.646 18.8531 238.064 18.5305C237.488 18.2021 236.705 18.0408 235.726 18.0408H232.989V24.2165H235.103C235.921 24.2165 236.549 24.1243 236.981 23.9342C237.413 23.7441 237.736 23.433 237.955 22.9836L238.001 22.8799H238.151V26.0542H238.013L237.966 25.939C237.753 25.432 237.425 25.0748 236.987 24.8559C236.549 24.6428 235.921 24.5333 235.103 24.5333H232.989V31.9706H236.175C237.062 31.9706 237.776 31.8323 238.312 31.5558C238.848 31.2793 239.268 30.83 239.58 30.2136L239.833 29.649H239.971V32.2932H229.682Z" fill="#FFF0DE"/>
<path d="M254.466 31.6365C253.901 31.8439 253.504 31.9764 253.285 32.0283C252.19 32.299 251.344 32.4431 250.744 32.4661C250.635 32.4719 250.45 32.4776 250.191 32.4776C248.33 32.4776 246.781 32.1435 245.548 31.4752C244.788 31.0605 244.125 30.4959 243.56 29.7758C243.048 29.1306 242.656 28.3701 242.38 27.4887C242.109 26.6073 241.988 25.7086 242.017 24.7868C242.057 23.4734 242.403 22.2578 243.065 21.1345C243.722 20.0111 244.615 19.1124 245.744 18.4384C246.746 17.8392 247.996 17.5397 249.494 17.5397C249.759 17.5397 250.053 17.5512 250.37 17.5742C251.044 17.6376 251.649 17.7355 252.185 17.8738C252.323 17.9026 252.645 17.9948 253.164 18.1388L253.256 18.1618C253.256 18.1618 253.291 18.1791 253.32 18.1849C253.348 18.1906 253.366 18.1964 253.383 18.1964C253.435 18.2137 253.527 18.2367 253.648 18.2655C254.034 18.3635 254.293 18.3289 254.443 18.1618H254.639V21.6011H254.477C254.431 21.4801 254.38 21.3476 254.316 21.2094L254.293 21.1633C253.671 19.8383 253.026 18.9799 252.363 18.5882C251.534 18.11 250.658 17.8738 249.731 17.8738C248.192 17.8738 246.936 18.375 245.974 19.3774C245.375 19.9996 244.92 20.7773 244.603 21.7163C244.286 22.6553 244.148 23.675 244.177 24.7696C244.217 26.2328 244.488 27.5233 244.995 28.6351C245.536 29.8334 246.257 30.7033 247.144 31.2563C247.49 31.4637 247.806 31.625 248.1 31.7402C248.791 31.9937 249.512 32.1205 250.272 32.1205C250.814 32.1205 251.366 32.0456 251.925 31.9015C252.346 31.7806 252.772 31.5732 253.199 31.2909C253.585 31.0259 253.936 30.6802 254.27 30.2654C254.437 30.058 254.604 29.8046 254.777 29.4935L254.938 29.1824L255.088 29.217L254.477 31.6308L254.466 31.6365Z" fill="#FFF0DE"/>
<path d="M265.596 18.0408H263.954V30.2596C263.954 31.0431 264.104 31.5789 264.403 31.8669C264.593 32.0513 264.87 32.1434 265.221 32.1434H265.29V32.2932H260.636V32.1434H260.693C261.068 32.1434 261.35 32.0513 261.534 31.8669C261.834 31.5731 261.984 31.0373 261.984 30.2596V18.0408H260.342C259.409 18.0408 258.66 18.2136 258.095 18.5535C257.531 18.8934 257.098 19.4465 256.793 20.2011L256.689 20.4546H256.54V17.7182H269.404V20.4546H269.265L269.162 20.2126C268.856 19.4464 268.419 18.8934 267.854 18.5535C267.289 18.2136 266.54 18.0408 265.607 18.0408H265.596Z" fill="#FFF0DE"/>
<path d="M275.62 17.868H275.539C275.187 17.868 274.917 17.9602 274.732 18.1445C274.433 18.4383 274.283 18.9741 274.283 19.7518V30.2596C274.283 31.0316 274.433 31.5731 274.732 31.8669C274.917 32.0513 275.187 32.1434 275.55 32.1434H275.62V32.2932H270.976V32.1434H270.999C271.385 32.1434 271.668 32.0513 271.864 31.8669C272.163 31.5731 272.313 31.0373 272.313 30.2596V19.7518C272.313 18.9683 272.163 18.4325 271.864 18.1445C271.673 17.9602 271.397 17.868 271.046 17.868H270.976V17.7182H275.62V17.868Z" fill="#FFF0DE"/>
<path d="M289.855 19.6481C291.272 21.048 291.981 22.8109 291.981 24.9251C291.981 27.0393 291.266 28.8885 289.843 30.3288C288.426 31.7632 286.698 32.4776 284.67 32.4776C282.642 32.4776 280.897 31.7748 279.508 30.3749C278.12 28.9865 277.429 27.1776 277.429 24.9481C277.429 22.7187 278.235 20.8406 279.843 19.4062C281.243 18.156 282.913 17.5339 284.843 17.5339C286.773 17.5339 288.444 18.2367 289.855 19.6481ZM288.357 30.4555C289.331 29.3264 289.815 27.5751 289.815 25.2016C289.815 22.6438 289.279 20.7139 288.207 19.4062C287.343 18.3807 286.151 17.868 284.63 17.868C283.195 17.868 282.049 18.3807 281.179 19.4062C280.113 20.6563 279.583 22.4882 279.583 24.902C279.583 27.3158 280.136 29.2573 281.237 30.5938C282.095 31.6365 283.23 32.155 284.641 32.155C286.133 32.155 287.372 31.5904 288.357 30.4555Z" fill="#FFF0DE"/>
<path d="M304.13 17.7182H307.235V17.868H307.166C306.792 17.868 306.515 17.9544 306.337 18.133C306.06 18.4037 305.916 18.9395 305.899 19.7403V32.2932H305.208L304.355 31.0835L295.518 19.0259V30.2596C295.518 31.0316 295.668 31.5673 295.967 31.8554C296.157 32.0455 296.428 32.1434 296.785 32.1434H296.854V32.2932H293.761V32.1434C294.147 32.1492 294.441 32.057 294.648 31.8669C294.948 31.5731 295.097 31.0373 295.097 30.2596V19.7518C295.097 18.9683 294.948 18.4325 294.648 18.1445C294.458 17.9602 294.181 17.868 293.83 17.868H293.761V17.7182H296.889L305.478 29.4992V19.7518C305.478 18.9683 305.329 18.4325 305.029 18.1445C304.845 17.9602 304.574 17.868 304.211 17.868H304.13V17.7182Z" fill="#FFF0DE"/>
</svg>
